<?xml version="1.0" encoding="utf-8"?>
<!-- Generator: Adobe Illustrator 24.2.3, SVG Export Plug-In . SVG Version: 6.00 Build 0)  -->
<svg version="1.1" id="Layer_1" xmlns="http://www.w3.org/2000/svg" xmlns:xlink="http://www.w3.org/1999/xlink" x="0px" y="0px"
	 viewBox="0 0 512 512" style="enable-background:new 0 0 512 512;" xml:space="preserve">
<style type="text/css">
	.st0{fill:url(#XMLID_2_);}
	.st1{fill:url(#XMLID_3_);}
	.st2{fill:url(#SVGID_1_);}
	.st3{fill:url(#SVGID_2_);}
	.st4{fill:url(#SVGID_3_);}
</style>
<g>
	<g id="XMLID_197_">
		<linearGradient id="XMLID_2_" gradientUnits="userSpaceOnUse" x1="79.7982" y1="139.874" x2="319.7982" y2="504.874">
			<stop  offset="0" style="stop-color:#EF7E1C"/>
			<stop  offset="0.138" style="stop-color:#DB8125"/>
			<stop  offset="0.4204" style="stop-color:#A88B3B"/>
			<stop  offset="0.8188" style="stop-color:#56995E"/>
			<stop  offset="1" style="stop-color:#2EA06F"/>
		</linearGradient>
		<path id="XMLID_606_" class="st0" d="M443.1,340c6.5-8.5,10.4-19.2,10.4-30.8v-17.7c0-28-22.8-50.7-50.7-50.7
			s-50.7,22.8-50.7,50.7v17.7c0,11.5,3.9,22.2,10.4,30.7h-56.8c13.7-13.1,22.3-31.6,22.3-52V242c0-39.7-32.3-72-72-72
			s-72,32.3-72,72V288c0,20.4,8.6,38.9,22.3,52h-56.8c6.5-8.5,10.4-19.2,10.4-30.7v-17.7c0-28-22.8-50.7-50.7-50.7
			s-50.7,22.8-50.7,50.7v17.7c0,11.6,3.9,22.2,10.4,30.8C30.8,340.4,0,371.4,0,409.5v37.9c0,5.5,4.5,10,10,10h80V502
			c0,5.5,4.5,10,10,10h28c5.5,0,10-4.5,10-10s-4.5-10-10-10h-18v-48.7c0-43.7,33.8-79.6,76.7-83L241.1,492H218c-5.5,0-10,4.5-10,10
			s4.5,10,10,10h194c5.5,0,10-4.5,10-10v-44.6h80c5.5,0,10-4.5,10-10v-37.9C512,371.4,481.2,340.4,443.1,340L443.1,340z
			 M372.1,309.3v-17.7c0-16.9,13.8-30.7,30.7-30.7s30.7,13.8,30.7,30.7v17.7c0,16.9-13.8,30.7-30.7,30.7S372.1,326.2,372.1,309.3z
			 M256,190c28.7,0,52,23.3,52,52v0.1h0c-16.5,0-32.6-4.8-46.5-13.9c-3.3-2.2-7.6-2.2-11,0c-13.9,9.1-29.9,13.9-46.5,13.9h0V242
			C204,213.3,227.3,190,256,190z M204,288v-26h0c18.3,0,36.1-4.7,52-13.8c15.8,9,33.7,13.8,52,13.8h0v26c0,28.7-23.3,52-52,52
			S204,316.7,204,288z M78.4,291.6c0-16.9,13.8-30.7,30.7-30.7s30.7,13.8,30.7,30.7v17.7c0,16.9-13.8,30.7-30.7,30.7
			s-30.7-13.8-30.7-30.7V291.6z M90.2,437.4H20v-27.9c0-27.3,22.2-49.5,49.5-49.5h62.7C108.1,377.7,92,405.7,90.2,437.4L90.2,437.4z
			 M208.4,360H246v24c0,5.5,4.5,10,10,10s10-4.5,10-10v-24h37.6h0.1L256,475.8L208.2,360H208.4z M402,492H270.9l54.4-131.7
			c42.9,3.4,76.7,39.3,76.7,83V492z M492,437.4h-70.2c-1.8-31.7-18-59.7-42.1-77.4h62.7c27.3,0,49.5,22.2,49.5,49.5L492,437.4z"/>
		<linearGradient id="XMLID_3_" gradientUnits="userSpaceOnUse" x1="-21.3702" y1="206.3957" x2="218.6298" y2="571.3958">
			<stop  offset="0" style="stop-color:#EF7E1C"/>
			<stop  offset="0.138" style="stop-color:#DB8125"/>
			<stop  offset="0.4204" style="stop-color:#A88B3B"/>
			<stop  offset="0.8188" style="stop-color:#56995E"/>
			<stop  offset="1" style="stop-color:#2EA06F"/>
		</linearGradient>
		<path id="XMLID_620_" class="st1" d="M173,492c-2.6,0-5.2,1.1-7.1,2.9s-2.9,4.4-2.9,7.1s1.1,5.2,2.9,7.1c1.9,1.9,4.4,2.9,7.1,2.9
			s5.2-1.1,7.1-2.9c1.9-1.9,2.9-4.4,2.9-7.1s-1.1-5.2-2.9-7.1C178.2,493.1,175.6,492,173,492z"/>
	</g>
	<linearGradient id="SVGID_1_" gradientUnits="userSpaceOnUse" x1="229.6118" y1="41.3665" x2="469.6118" y2="406.3665">
		<stop  offset="0" style="stop-color:#EF7E1C"/>
		<stop  offset="0.138" style="stop-color:#DB8125"/>
		<stop  offset="0.4204" style="stop-color:#A88B3B"/>
		<stop  offset="0.8188" style="stop-color:#56995E"/>
		<stop  offset="1" style="stop-color:#2EA06F"/>
	</linearGradient>
	<path class="st2" d="M335.9,58.2c-1.2-3.6-4.3-6.3-8.1-6.8l-43.1-6.3L265.3,5.6c-1.7-3.4-5.2-5.6-9-5.6s-7.3,2.2-9,5.6l-19.3,39.5
		l-43.1,6.3c-3.8,0.5-6.9,3.2-8.1,6.8s-0.2,7.6,2.5,10.2l31.2,30.4l-7.4,43c-0.6,3.8,0.9,7.5,4,9.8c3.1,2.2,7.1,2.5,10.5,0.8
		l38.6-20.3l38.6,20.3c3.4,1.8,7.4,1.5,10.5-0.8c3.1-2.2,4.6-6,4-9.8l-7.4-43l31.2-30.4C336.1,65.8,337,61.8,335.9,58.2z
		 M284.4,88.2c-2.4,2.3-3.4,5.6-2.9,8.9l4.8,28.2L261,111.9c-2.9-1.5-6.4-1.5-9.3,0l-25.3,13.3l4.8-28.2c0.6-3.2-0.5-6.6-2.9-8.9
		l-20.5-20l28.3-4.1c3.3-0.5,6.1-2.5,7.5-5.5l12.6-25.9L269,58.6c1.5,3,4.3,5,7.5,5.5l28.3,4.1L284.4,88.2z"/>
	<linearGradient id="SVGID_2_" gradientUnits="userSpaceOnUse" x1="302.4218" y1="-6.5086" x2="542.4218" y2="358.4914">
		<stop  offset="0" style="stop-color:#EF7E1C"/>
		<stop  offset="0.138" style="stop-color:#DB8125"/>
		<stop  offset="0.4204" style="stop-color:#A88B3B"/>
		<stop  offset="0.8188" style="stop-color:#56995E"/>
		<stop  offset="1" style="stop-color:#2EA06F"/>
	</linearGradient>
	<path class="st3" d="M465.3,133.1c-1.2-3.6-4.3-6.3-8.1-6.8l-29.2-4.2L415,95.6c-1.7-3.4-5.2-5.6-9-5.6c0,0,0,0,0,0
		c-3.8,0-7.3,2.2-9,5.6L384,122.1l-29.2,4.2c-3.8,0.5-6.9,3.2-8.1,6.8c-1.2,3.6-0.2,7.6,2.5,10.2l21.1,20.6l-5,29.1
		c-0.6,3.8,0.9,7.5,4,9.8c3.1,2.2,7.2,2.5,10.5,0.8l26.1-13.7l26.1,13.7c3.4,1.8,7.5,1.5,10.5-0.8c3.1-2.2,4.6-6,4-9.8l-5-29.1
		l21.1-20.6C465.5,140.7,466.5,136.7,465.3,133.1z M423.9,153.3c-2.4,2.3-3.4,5.6-2.9,8.8l2.5,14.3l-12.9-6.8
		c-2.9-1.5-6.4-1.5-9.3,0l-12.9,6.8l2.5-14.3c0.6-3.2-0.5-6.6-2.9-8.8l-10.4-10.1l14.4-2.1c3.3-0.5,6.1-2.5,7.5-5.5l6.4-13l6.4,13
		c1.5,3,4.3,5,7.5,5.5l14.4,2.1L423.9,153.3z"/>
	<linearGradient id="SVGID_3_" gradientUnits="userSpaceOnUse" x1="92.9784" y1="131.2076" x2="332.9784" y2="496.2076">
		<stop  offset="0" style="stop-color:#EF7E1C"/>
		<stop  offset="0.138" style="stop-color:#DB8125"/>
		<stop  offset="0.4204" style="stop-color:#A88B3B"/>
		<stop  offset="0.8188" style="stop-color:#56995E"/>
		<stop  offset="1" style="stop-color:#2EA06F"/>
	</linearGradient>
	<path class="st4" d="M165.3,133.1c-1.2-3.6-4.3-6.3-8.1-6.8l-29.2-4.2L115,95.6c-1.7-3.4-5.2-5.6-9-5.6s-7.3,2.2-9,5.6L84,122.1
		l-29.2,4.2c-3.8,0.5-6.9,3.2-8.1,6.8c-1.2,3.6-0.2,7.6,2.5,10.2L70.3,164l-5,29.1c-0.6,3.8,0.9,7.5,4,9.8s7.2,2.5,10.5,0.8
		l26.1-13.7l26.1,13.7c3.4,1.8,7.5,1.5,10.5-0.8c3.1-2.2,4.6-6,4-9.8l-5-29.1l21.1-20.6C165.5,140.7,166.5,136.7,165.3,133.1z
		 M123.9,153.3c-2.4,2.3-3.4,5.6-2.9,8.8l2.5,14.3l-12.9-6.8c-2.9-1.5-6.4-1.5-9.3,0l-12.9,6.8l2.5-14.3c0.6-3.2-0.5-6.6-2.9-8.8
		l-10.4-10.1l14.4-2.1c3.3-0.5,6.1-2.5,7.5-5.5l6.4-13l6.4,13c1.5,3,4.3,5,7.5,5.5l14.4,2.1L123.9,153.3z"/>
</g>
</svg>
