<svg xmlns="http://www.w3.org/2000/svg" viewBox="0 0 241.07 52"><defs><style>.cls-1{isolation:isolate;}.cls-2{fill:#b5b4b5;}.cls-3{fill:#2ea06f;}.cls-4,.cls-8{mix-blend-mode:multiply;}.cls-5,.cls-9{fill:#677170;}.cls-5{opacity:0.3;}.cls-6{fill:#ef7e1c;}.cls-7{fill:#a2a1a1;}.cls-8{fill:#4e5554;opacity:0.4;}.cls-9{opacity:0.15;}</style></defs><g class="cls-1"><g id="Layer_2" data-name="Layer 2"><g id="Layer_1-2" data-name="Layer 1"><path class="cls-2" d="M132.07,36.5V40a60.62,60.62,0,0,1-9,1c-6.7,0-9-3.8-9-11.55,0-8.32,3.44-12.45,9.38-12.45,6.16,0,9.62,3.82,9.62,11V31.5h-15c0,4,1.59,5.5,5.56,5.5C127.07,37,132.07,36.5,132.07,36.5Zm-2.5-8.5c0-4.66-2.42-7.2-6-7.2s-5.45,2.68-5.5,7.2Z"/><path class="cls-2" d="M138.07,41V10h10.78c9.51,0,11.72,5.8,11.72,15.06,0,9.45-2,15.94-11.72,15.94Zm10.78-27h-6.78V37h6.78c6.3,0,7.22-5.51,7.22-12S155.15,14,148.85,14Z"/><path class="cls-2" d="M184.7,29c0,7.52-2.15,12-9.73,12s-9.9-4.24-9.9-11.94c0-7.48,2.57-11.67,9.9-11.67C182,17.39,184.7,21.61,184.7,29Zm-4.29,0c0-5.33-1.47-8-5.44-8-4.29,0-5.54,2.49-5.54,8s.94,8,5.54,8S180.41,34.33,180.41,29Z"/><path class="cls-3" d="M204.52,40.72a16.39,16.39,0,0,1-3.17.32c-9.55,0-12.28-5.46-12.28-15.85S191.8,9,201.35,9s12.37,5.85,12.37,16.19c0,7.07-1.25,11.73-4.91,14.06l3.7,6.08-4,1.88ZM209,25.19c0-7.7-1.48-12.19-7.86-12.19s-7.86,4.45-7.86,12.19S194.74,37,201.17,37,209,33.16,209,25.19Z"/><path class="cls-3" d="M224.07,10h9l8,31h-4.5l-2-7h-12l-2,7h-4.5Zm-.5,19h10l-4-15h-2Z"/><path class="cls-2" d="M78.57,10l5.5,26.51h1L90.57,10h5l5.5,26.51h1L107.57,10h4.5l-6.53,31H98.07l-5-24.5-5,24.5h-7l-7-31Z"/><circle class="cls-3" cx="57.12" cy="4.77" r="4.77"/><g class="cls-4"><path class="cls-5" d="M53.1,7.24A4.77,4.77,0,0,0,62,4.77a4.7,4.7,0,0,0-1-2.85Z"/></g><circle class="cls-3" cx="4.77" cy="39.37" r="4.77"/><circle class="cls-6" cx="30.95" cy="22.2" r="8.17"/><path class="cls-7" d="M50.21,48.18,44.85,39.4A22.14,22.14,0,1,0,31,44.32a21.9,21.9,0,0,0,9.6-2.2l5.08,8.33a2.56,2.56,0,0,0,4.91-1,2.51,2.51,0,0,0-.34-1.25Zm-36.62-26A17.36,17.36,0,1,1,31,39.51,17.37,17.37,0,0,1,13.59,22.16Z"/><g class="cls-4"><path class="cls-5" d="M.69,41.84a4.77,4.77,0,1,0,7.9-5.33Z"/></g><path class="cls-8" d="M53.1,22.16V22.1a22.16,22.16,0,0,1-44.31,0v.06A22.18,22.18,0,0,0,31,44.32a21.9,21.9,0,0,0,9.6-2.2l5.08,8.33a2.56,2.56,0,0,0,4.91-1,2.51,2.51,0,0,0-.34-1.25h0L44.85,39.4A22.11,22.11,0,0,0,53.1,22.16Z"/><g class="cls-4"><path class="cls-9" d="M12.31,34.12A22.16,22.16,0,1,0,49.05,9.34Z"/></g></g></g></g></svg>