<svg xmlns="http://www.w3.org/2000/svg" xmlns:xlink="http://www.w3.org/1999/xlink" viewBox="0 0 39.27 49"><defs><style>.cls-1{fill:url(#linear-gradient);}.cls-2{fill:url(#linear-gradient-2);}.cls-3{fill:url(#linear-gradient-3);}</style><linearGradient id="linear-gradient" x1="97.86" y1="-16.15" x2="120.68" y2="12.5" gradientTransform="translate(-80.87 22.85) rotate(-6.12)" gradientUnits="userSpaceOnUse"><stop offset="0" stop-color="#f07f1d"/><stop offset="1" stop-color="#4ba07d"/></linearGradient><linearGradient id="linear-gradient-2" x1="16.79" y1="14.45" x2="39.61" y2="43.1" gradientTransform="translate(-30.15 7.22) rotate(-2.23)" xlink:href="#linear-gradient"/><linearGradient id="linear-gradient-3" x1="38.04" y1="-2.48" x2="60.87" y2="26.17" gradientTransform="translate(-30.15 7.22) rotate(-2.23)" xlink:href="#linear-gradient"/></defs><g id="Layer_2" data-name="Layer 2"><g id="Layer_1-2" data-name="Layer 1"><path class="cls-1" d="M19.77,4.39h-.11a.56.56,0,1,0,.12,1.11h0A12.59,12.59,0,0,1,33.63,16.67h0a.55.55,0,0,0,1.1-.11h0A13.7,13.7,0,0,0,19.77,4.39Z"/><path class="cls-2" d="M8.05,35,.49,45.53a2.12,2.12,0,0,0,2.59,3.24,2.32,2.32,0,0,0,.8-.72h0L11.5,37.38Z"/><path class="cls-3" d="M20.55,0A18,18,0,0,0,10.1,32.16L10,32.1l-.86,1.22,3.45,2.39,1-1.39A18,18,0,1,0,20.55,0Zm1.32,33.78A15.78,15.78,0,1,1,37,17.41,15.8,15.8,0,0,1,21.87,33.79Z"/></g></g></svg>