<?xml version="1.0" encoding="utf-8"?>
<!-- Generator: Adobe Illustrator 24.2.3, SVG Export Plug-In . SVG Version: 6.00 Build 0)  -->
<svg version="1.1" id="Capa_1" xmlns="http://www.w3.org/2000/svg" xmlns:xlink="http://www.w3.org/1999/xlink" x="0px" y="0px"
	 viewBox="0 0 512 512" style="enable-background:new 0 0 512 512;" xml:space="preserve">
<style type="text/css">
	.st0{fill:url(#SVGID_1_);}
</style>
<linearGradient id="SVGID_1_" gradientUnits="userSpaceOnUse" x1="158.0878" y1="61.1853" x2="327.0878" y2="314.1853">
	<stop  offset="0" style="stop-color:#EF7E1C"/>
	<stop  offset="1" style="stop-color:#2EA06F"/>
</linearGradient>
<path class="st0" d="M256,300.2c-52.4,0-95.1-42.6-95.1-95.1s42.6-95.1,95.1-95.1s95.1,42.6,95.1,95.1S308.4,300.2,256,300.2z
	 M256,150.1c-30.3,0-55,24.7-55,55s24.7,55,55,55s55-24.7,55-55S286.3,150.1,256,150.1z M256,512l-12.6-10.2
	c-1.9-1.6-48.2-39.1-95.1-92.9C83.7,334.6,50.9,268,50.9,210.8v-5.7C50.9,92,142.9,0,256,0s205.1,92,205.1,205.1v5.7
	c0,57.2-32.8,123.9-97.5,198.1c-46.9,53.8-93.1,91.4-95.1,92.9L256,512z M256,40c-91,0-165.1,74.1-165.1,165.1v5.7
	c0,96.7,124.5,213.7,165.1,249.2c40.5-35.5,165.1-152.5,165.1-249.2v-5.7C421.1,114.1,347,40,256,40z"/>
</svg>
