<?xml version="1.0" encoding="utf-8"?>
<!-- Generator: Adobe Illustrator 24.2.3, SVG Export Plug-In . SVG Version: 6.00 Build 0)  -->
<svg version="1.1" id="Layer_1" xmlns="http://www.w3.org/2000/svg" xmlns:xlink="http://www.w3.org/1999/xlink" x="0px" y="0px"
	 viewBox="0 0 138.7 141.7" style="enable-background:new 0 0 138.7 141.7;" xml:space="preserve">
<style type="text/css">
	.st0{fill:url(#SVGID_1_);}
	.st1{fill:url(#SVGID_2_);}
	.st2{fill:url(#SVGID_3_);}
	.st3{fill:url(#SVGID_4_);}
</style>
<g>
	
		<radialGradient id="SVGID_1_" cx="26.9045" cy="61.7194" r="118.7459" gradientTransform="matrix(0.9991 -4.203745e-02 -4.203745e-02 -0.9991 4.5928 143.8855)" gradientUnits="userSpaceOnUse">
		<stop  offset="0" style="stop-color:#EF7E1C"/>
		<stop  offset="0.1119" style="stop-color:#E28022"/>
		<stop  offset="0.3184" style="stop-color:#C08630"/>
		<stop  offset="0.5967" style="stop-color:#899048"/>
		<stop  offset="0.9329" style="stop-color:#3E9D68"/>
		<stop  offset="1" style="stop-color:#2EA06F"/>
	</radialGradient>
	<path class="st0" d="M136.8,8c-0.5-1-1.5-1.7-2.5-2l-22.8-5.9c-2.2-0.6-4.4,0.7-5,2.9c-0.6,2.2,0.7,4.4,2.9,5l12.3,3.2L3.6,69.8
		c-2,1-2.8,3.4-1.8,5.4c0.7,1.5,2.3,2.3,3.8,2.3c0.6,0,1.1-0.2,1.6-0.4l119.3-59.2l-4.2,13.4c-0.7,2.1,0.5,4.4,2.6,5.1
		c2.1,0.7,4.4-0.5,5.1-2.6l7.1-22.5C137.5,10.2,137.3,9,136.8,8L136.8,8z"/>
	<g>
		<radialGradient id="SVGID_2_" cx="26.9045" cy="61.7194" r="118.7459" gradientUnits="userSpaceOnUse">
			<stop  offset="0" style="stop-color:#EF7E1C"/>
			<stop  offset="0.1119" style="stop-color:#E28022"/>
			<stop  offset="0.3184" style="stop-color:#C08630"/>
			<stop  offset="0.5967" style="stop-color:#899048"/>
			<stop  offset="0.9329" style="stop-color:#3E9D68"/>
			<stop  offset="1" style="stop-color:#2EA06F"/>
		</radialGradient>
		<path class="st1" d="M80.8,73.8H57.9c-3.2,0-5.7,2.6-5.7,5.7v62.2h34.3V79.5C86.5,76.4,83.9,73.8,80.8,73.8z"/>
		<radialGradient id="SVGID_3_" cx="26.9045" cy="61.7194" r="118.7459" gradientUnits="userSpaceOnUse">
			<stop  offset="0" style="stop-color:#EF7E1C"/>
			<stop  offset="0.1119" style="stop-color:#E28022"/>
			<stop  offset="0.3184" style="stop-color:#C08630"/>
			<stop  offset="0.5967" style="stop-color:#899048"/>
			<stop  offset="0.9329" style="stop-color:#3E9D68"/>
			<stop  offset="1" style="stop-color:#2EA06F"/>
		</radialGradient>
		<path class="st2" d="M35,96.7H12.2c-3.2,0-5.7,2.6-5.7,5.7v39.4h34.3v-39.4C40.8,99.2,38.2,96.7,35,96.7z"/>
		<radialGradient id="SVGID_4_" cx="26.9045" cy="61.7194" r="118.7459" gradientUnits="userSpaceOnUse">
			<stop  offset="0" style="stop-color:#EF7E1C"/>
			<stop  offset="0.1119" style="stop-color:#E28022"/>
			<stop  offset="0.3184" style="stop-color:#C08630"/>
			<stop  offset="0.5967" style="stop-color:#899048"/>
			<stop  offset="0.9329" style="stop-color:#3E9D68"/>
			<stop  offset="1" style="stop-color:#2EA06F"/>
		</radialGradient>
		<path class="st3" d="M126.5,50.9h-22.9c-3.2,0-5.7,2.6-5.7,5.7v85.1h34.3V56.6C132.2,53.5,129.7,50.9,126.5,50.9z"/>
	</g>
</g>
</svg>
