<?xml version="1.0" encoding="utf-8"?>
<!-- Generator: Adobe Illustrator 24.2.3, SVG Export Plug-In . SVG Version: 6.00 Build 0)  -->
<svg version="1.1" id="Layer_5" xmlns="http://www.w3.org/2000/svg" xmlns:xlink="http://www.w3.org/1999/xlink" x="0px" y="0px"
	 viewBox="0 0 512 512" style="enable-background:new 0 0 512 512;" xml:space="preserve">
<style type="text/css">
	.st0{fill:url(#SVGID_1_);}
	.st1{fill:url(#SVGID_2_);}
	.st2{fill:url(#SVGID_3_);}
</style>
<g>
	<linearGradient id="SVGID_1_" gradientUnits="userSpaceOnUse" x1="253.3768" y1="21.6173" x2="454.3767" y2="414.6172">
		<stop  offset="0" style="stop-color:#EF7E1C"/>
		<stop  offset="0.2447" style="stop-color:#B38936"/>
		<stop  offset="0.5014" style="stop-color:#7A934E"/>
		<stop  offset="0.7222" style="stop-color:#519A60"/>
		<stop  offset="0.8956" style="stop-color:#379E6B"/>
		<stop  offset="1" style="stop-color:#2EA06F"/>
	</linearGradient>
	<path class="st0" d="M488,488h16v16h-16V488z"/>
	<linearGradient id="SVGID_2_" gradientUnits="userSpaceOnUse" x1="-127.0981" y1="216.2112" x2="73.9019" y2="609.2112">
		<stop  offset="0" style="stop-color:#EF7E1C"/>
		<stop  offset="0.2447" style="stop-color:#B38936"/>
		<stop  offset="0.5014" style="stop-color:#7A934E"/>
		<stop  offset="0.7222" style="stop-color:#519A60"/>
		<stop  offset="0.8956" style="stop-color:#379E6B"/>
		<stop  offset="1" style="stop-color:#2EA06F"/>
	</linearGradient>
	<path class="st1" d="M8,488h16v16H8V488z"/>
	<linearGradient id="SVGID_3_" gradientUnits="userSpaceOnUse" x1="123.3344" y1="88.1275" x2="324.3344" y2="481.1275">
		<stop  offset="0" style="stop-color:#EF7E1C"/>
		<stop  offset="0.2447" style="stop-color:#B38936"/>
		<stop  offset="0.5014" style="stop-color:#7A934E"/>
		<stop  offset="0.7222" style="stop-color:#519A60"/>
		<stop  offset="0.8956" style="stop-color:#379E6B"/>
		<stop  offset="1" style="stop-color:#2EA06F"/>
	</linearGradient>
	<path class="st2" d="M456,352c-15.7,0-29.8,6.5-40,16.9V344c13.2,0,24-10.8,24-24v-22.3c0-5.4,2.6-10.3,6.9-13.1
		c20.7-13.3,33.1-36,33.1-60.6c0-20.5-8.8-40.1-24-53.7c-15.3-13.6-35.8-20.1-56.3-17.8c-32.4,3.7-58.9,29.8-63,62.1
		c-3.6,28.1,8.9,54.9,32.7,70.1c4.1,2.6,6.7,7.8,6.7,13.3v22c0,13.2,10.8,24,24,24v64v8v8.9c-10.2-10.4-24.3-16.9-40-16.9h-48v8
		c0,30.9,25.1,56,56,56h32v16H264v-16v-8v-56h24c22.1,0,40-17.9,40-40v-8h-40c-9,0-17.3,3.1-24,8.2V344h24c30.9,0,56-25.1,56-56v-8
		h-40c-15.7,0-29.8,6.5-40,16.9V264c22.1,0,40-17.9,40-40v-20.2c0-9.7,4.5-18.8,12.4-25.2C339,160.2,352,133.1,352,104
		c0-27.3-11.7-53.4-32-71.6c-20.3-18.2-47.7-26.8-75-23.8c-42.1,4.7-77.4,38.4-83.8,80.2c-5.3,34.2,7.4,67.7,34.1,89.5
		c8.1,6.6,12.8,15.9,12.8,25.6V224c0,22.1,17.9,40,40,40v40.2c-6.7-5.1-15-8.2-24-8.2h-40v8c0,22.1,17.9,40,40,40h24v56v8v24.2
		c-6.7-5.1-15-8.2-24-8.2h-40v8c0,22.1,17.9,40,40,40h24v16H112v-16v-8v-48h32c30.9,0,56-25.1,56-56v-8h-48
		c-15.7,0-29.8,6.5-40,16.9V344c13.2,0,24-10.8,24-24v-22.3c0-5.4,2.6-10.3,6.9-13.1c20.7-13.3,33.1-36,33.1-60.6
		c0-20.5-8.8-40.1-24-53.7c-15.3-13.6-35.8-20.1-56.3-17.8c-32.4,3.7-58.9,29.8-63,62.1c-3.6,28.1,8.9,54.9,32.7,70.1
		c4.2,2.6,6.7,7.8,6.7,13.3v22c0,13.2,10.8,24,24,24v64v8v8.9C85.8,414.5,71.7,408,56,408H8v8c0,30.9,25.1,56,56,56h32v16H40v16h432
		v-16h-56v-16v-8v-48h32c30.9,0,56-25.1,56-56v-8H456z M377.9,271.2c-18.5-11.8-28.2-32.7-25.4-54.6c3.2-25.1,23.8-45.4,49-48.2
		c2.2-0.2,4.4-0.4,6.6-0.4c13.8,0,26.8,4.9,37.2,14.2c11.9,10.6,18.7,25.8,18.7,41.8c0,19.1-9.6,36.7-25.8,47.1
		c-8.5,5.4-13.6,14.7-14.1,24.9H416v-49.5c9.3-3.3,16-12.1,16-22.5c0-13.2-10.8-24-24-24s-24,10.8-24,24c0,10.4,6.7,19.2,16,22.5
		V296h-8.1C391.3,285.7,386.2,276.5,377.9,271.2L377.9,271.2z M400,224c0-4.4,3.6-8,8-8s8,3.6,8,8s-3.6,8-8,8S400,228.4,400,224z
		 M392,320v-8h32v8c0,4.4-3.6,8-8,8h-16C395.6,328,392,324.4,392,320z M368,456c-19.3,0-35.5-13.8-39.2-32H360
		c19.3,0,35.5,13.8,39.2,32H368z M288,376h22.6c-3.3,9.3-12.2,16-22.6,16h-22.6C268.7,382.7,277.6,376,288,376z M304,296h23.2
		c-3.7,18.2-19.9,32-39.2,32h-23.2C268.5,309.8,284.7,296,304,296z M205.4,165.9c-22.2-18.1-32.8-46-28.4-74.6
		c5.4-34.7,34.7-62.8,69.8-66.7c3.1-0.3,6.3-0.5,9.3-0.5c19.7,0,38.4,7.1,53.2,20.4c17,15.2,26.7,36.9,26.7,59.6
		c0,24.2-10.8,46.9-29.7,62.1c-10.6,8.6-17,20.8-18.1,33.9h-15.7l4.8-72H288c13.2,0,24-10.8,24-24s-10.8-24-24-24h-1
		c-12.6,0-23.1,9.8-23.9,22.4l-0.6,9.6h-12.8l-0.6-9.6C248.1,89.8,237.6,80,225,80h-1c-13.2,0-24,10.8-24,24s10.8,24,24,24h10.6
		l4.8,72h-15.7C222.7,187,216.2,174.7,205.4,165.9L205.4,165.9z M255.5,200l-4.8-72h10.6l-4.8,72H255.5z M278.4,112l0.6-8.5
		c0.3-4.2,3.8-7.5,8-7.5h1c4.4,0,8,3.6,8,8s-3.6,8-8,8H278.4z M233.6,112H224c-4.4,0-8-3.6-8-8s3.6-8,8-8h1c4.2,0,7.7,3.3,8,7.5
		L233.6,112z M224,224v-8h64v8c0,13.2-10.8,24-24,24h-16C234.8,248,224,237.2,224,224L224,224z M224,328c-10.4,0-19.3-6.7-22.6-16
		H224c10.4,0,19.3,6.7,22.6,16H224z M224,456c-10.4,0-19.3-6.7-22.6-16H224c10.4,0,19.3,6.7,22.6,16H224z M152,368h31.2
		c-3.7,18.2-19.9,32-39.2,32h-31.2C116.5,381.8,132.7,368,152,368z M73.9,271.2c-18.5-11.8-28.2-32.7-25.4-54.6
		c3.2-25.1,23.8-45.4,49-48.2c2.2-0.2,4.4-0.4,6.6-0.4c13.8,0,26.8,4.9,37.2,14.2c11.9,10.6,18.7,25.8,18.7,41.8
		c0,19.1-9.6,36.7-25.8,47.1c-8.5,5.4-13.6,14.7-14.1,24.9H112v-49.5c9.3-3.3,16-12.1,16-22.5c0-13.2-10.8-24-24-24s-24,10.8-24,24
		c0,10.4,6.7,19.2,16,22.5V296h-8.1C87.3,285.7,82.2,276.5,73.9,271.2z M96,224c0-4.4,3.6-8,8-8s8,3.6,8,8s-3.6,8-8,8
		S96,228.4,96,224z M88,320v-8h32v8c0,4.4-3.6,8-8,8H96C91.6,328,88,324.4,88,320z M64,456c-19.3,0-35.5-13.8-39.2-32H56
		c19.3,0,35.5,13.8,39.2,32H64z M448,400h-31.2c3.7-18.2,19.9-32,39.2-32h31.2C483.5,386.2,467.3,400,448,400z"/>
</g>
</svg>
