<svg xmlns="http://www.w3.org/2000/svg" viewBox="0 0 64 43.21"><defs><style>.cls-1{fill:#fff;}</style></defs><g id="Layer_2" data-name="Layer 2"><g id="Layer_1-2" data-name="Layer 1"><path class="cls-1" d="M18,21.21a10.93,10.93,0,0,0-8.41,3.92A15.22,15.22,0,0,1,20,.81h0a.4.4,0,0,0,.4-.4A.39.39,0,0,0,20,0h0a22,22,0,0,0-7.3,41.84A11,11,0,1,0,18,21.21ZM7.05,31.14c0,.35,0,.71,0,1.07C7,31.85,7,31.49,7.05,31.14Zm2.12-5.48L9,25.92Zm-.52.77-.21.34Zm-.47.84c-.07.14-.14.27-.2.41C8,27.54,8.11,27.41,8.18,27.27Zm-.41.9c-.06.16-.12.32-.17.48C7.65,28.49,7.71,28.33,7.77,28.17Zm-.32.95a4.92,4.92,0,0,0-.14.55A4.92,4.92,0,0,1,7.45,29.12Zm-.24,1c0,.22-.08.44-.11.66C7.13,30.55,7.16,30.33,7.21,30.11Zm2.23,9-.12-.16ZM8.68,38l-.18-.3ZM8,36.71c0-.05,0-.1-.07-.16S8,36.66,8,36.71Zm-.52-1.4c0-.11-.06-.22-.08-.33C7.39,35.09,7.42,35.2,7.45,35.31ZM7.15,34l-.06-.38Zm3.19,6.13.15.14Zm1,.87.23.17Z"/><path class="cls-1" d="M53,21.21a10.93,10.93,0,0,0-8.41,3.92A15.22,15.22,0,0,1,55,.81h0a.4.4,0,0,0,.4-.4A.39.39,0,0,0,55,0h0a22,22,0,0,0-7.3,41.84A11,11,0,1,0,53,21.21Zm-11,9.93c0,.35,0,.71,0,1.07C42,31.85,42,31.49,42.05,31.14Zm2.12-5.48-.19.26Zm-.52.77-.21.34Zm-.47.84c-.07.14-.14.27-.2.41C43,27.54,43.11,27.41,43.18,27.27Zm-.41.9c-.06.16-.12.32-.17.48C42.65,28.49,42.71,28.33,42.77,28.17Zm-.32.95a4.92,4.92,0,0,0-.14.55A4.92,4.92,0,0,1,42.45,29.12Zm-.24,1c-.05.22-.08.44-.11.66C42.13,30.55,42.16,30.33,42.21,30.11Zm2.23,9-.12-.16ZM43.68,38l-.18-.3ZM43,36.71c0-.05,0-.1-.07-.16S43,36.66,43,36.71Zm-.52-1.4c0-.11-.06-.22-.08-.33C42.39,35.09,42.42,35.2,42.45,35.31ZM42.15,34l-.06-.38Zm3.19,6.13.15.14Zm1,.87.23.17Z"/></g></g></svg>