<?xml version="1.0" encoding="utf-8"?>
<!-- Generator: Adobe Illustrator 24.2.3, SVG Export Plug-In . SVG Version: 6.00 Build 0)  -->
<svg version="1.1" id="Capa_1" xmlns="http://www.w3.org/2000/svg" xmlns:xlink="http://www.w3.org/1999/xlink" x="0px" y="0px"
	 viewBox="0 0 512 512" style="enable-background:new 0 0 512 512;" xml:space="preserve">
<style type="text/css">
	.st0{fill:url(#SVGID_1_);}
	.st1{fill:url(#SVGID_2_);}
	.st2{fill:url(#SVGID_3_);}
	.st3{fill:url(#SVGID_4_);}
</style>
<g>
	<linearGradient id="SVGID_1_" gradientUnits="userSpaceOnUse" x1="101.2621" y1="151.5975" x2="323.4517" y2="401.1536">
		<stop  offset="0" style="stop-color:#EF7E1C"/>
		<stop  offset="0.138" style="stop-color:#DB8125"/>
		<stop  offset="0.4204" style="stop-color:#A88B3B"/>
		<stop  offset="0.8188" style="stop-color:#56995E"/>
		<stop  offset="1" style="stop-color:#2EA06F"/>
	</linearGradient>
	<path class="st0" d="M497.1,222.9c1.5,0.9,3.2,1.3,4.9,1.3c1.7,0,3.5-0.5,5-1.4c3.1-1.8,5-5.1,5-8.6v-54.1c0-3.6-1.9-6.9-5.1-8.7
		l-246-138.8c-3.1-1.7-6.8-1.7-9.8,0L5.1,151.5c-3.1,1.8-5.1,5.1-5.1,8.7v54.1c0,3.6,1.9,6.8,5,8.6c3.1,1.8,6.9,1.8,10,0.1
		l32.2-18.1v228.7H10c-5.5,0-10,4.5-10,10v47.1c0,5.5,4.5,10,10,10h201c5.5,0,10-4.5,10-10s-4.5-10-10-10H20v-27.1h472v27.1H301
		c-5.5,0-10,4.5-10,10s4.5,10,10,10h201c5.5,0,10-4.5,10-10v-47.1c0-5.5-4.5-10-10-10h-37.1V204.8L497.1,222.9z M20,166L256,32.9
		L492,166v31.1L260.9,66.7c-1.5-0.9-3.2-1.3-4.9-1.3s-3.4,0.4-4.9,1.3L20,197.1V166z M444.9,433.5H67.1v-240L256,86.9l188.9,106.6
		V433.5z"/>
	<linearGradient id="SVGID_2_" gradientUnits="userSpaceOnUse" x1="19.2043" y1="224.6568" x2="241.3939" y2="474.2129">
		<stop  offset="0" style="stop-color:#EF7E1C"/>
		<stop  offset="0.138" style="stop-color:#DB8125"/>
		<stop  offset="0.4204" style="stop-color:#A88B3B"/>
		<stop  offset="0.8188" style="stop-color:#56995E"/>
		<stop  offset="1" style="stop-color:#2EA06F"/>
	</linearGradient>
	<circle class="st1" cx="256" cy="490.6" r="10"/>
	<g>
		<linearGradient id="SVGID_3_" gradientUnits="userSpaceOnUse" x1="80.4914" y1="170.0905" x2="302.681" y2="419.6465">
			<stop  offset="0" style="stop-color:#EF7E1C"/>
			<stop  offset="0.138" style="stop-color:#DB8125"/>
			<stop  offset="0.4204" style="stop-color:#A88B3B"/>
			<stop  offset="0.8188" style="stop-color:#56995E"/>
			<stop  offset="1" style="stop-color:#2EA06F"/>
		</linearGradient>
		<path class="st2" d="M232.9,261.3c0-3.9-0.5-7.4-1.6-10.4c-1.1-2.9-2.7-5.8-5-8.8c-4.4-4.8-9.3-8.3-14.9-10.6
			c-6.6-2.1-13-3.2-19.2-3.2c-9.5,0-18,2-25.5,6.1c-7.7,4.1-11.5,11.6-11.5,22.5c0,10.7,6.5,17.3,19.4,20.1l46.2,10.6
			c24.3,6,36.5,20.6,36.5,43.7c0,11.6-3.2,21.1-9.5,28.6c-6.3,7.4-14.3,12.5-24.1,15.5c-9.6,3.2-19.5,4.7-29.7,4.7
			c-20.4,0-36.4-4.7-48-14c-11.4-9.2-17.1-23.4-17.1-42.8h20.3c0,9,2.2,16.4,6.5,22.1c4.4,5.7,9.8,9.8,16.4,12.2
			c6.9,2.6,14.2,3.8,21.9,3.8c6.3,0,12.8-0.8,19.4-2.5c6.5-1.7,11.9-4.4,16.2-8.3c4.4-3.9,6.5-9.4,6.5-16.4c0-5.9-1-10.4-2.9-13.7
			c-2-3.3-5.5-6.1-10.6-8.3c-5.3-2.4-12.2-4.6-20.7-6.5l-24.1-5.4c-7.4-1.7-14.3-4-21-7c-7.1-3-12.5-7.2-16.4-12.6
			c-4.2-5.1-6.3-12.2-6.3-21.2c0-8.7,2-16.8,5.9-24.3c3.8-7.4,9.9-13.4,18.5-18.2c8.3-4.7,18.8-7,31.5-7c17.4,0,30.7,2.8,39.9,8.3
			c9,5.6,15,12.1,18,19.6c0.9,2.3,2,5.7,3.4,10.4l0.5,1.4c0.9,4.1,1.4,8,1.4,11.7H232.9z"/>
		<linearGradient id="SVGID_4_" gradientUnits="userSpaceOnUse" x1="147.469" y1="110.4577" x2="369.6586" y2="360.0138">
			<stop  offset="0" style="stop-color:#EF7E1C"/>
			<stop  offset="0.138" style="stop-color:#DB8125"/>
			<stop  offset="0.4204" style="stop-color:#A88B3B"/>
			<stop  offset="0.8188" style="stop-color:#56995E"/>
			<stop  offset="1" style="stop-color:#2EA06F"/>
		</linearGradient>
		<path class="st3" d="M383.4,338.8c-0.8,4.1-2.8,9.3-6.1,15.8c-3.3,6.8-8.3,12.3-15.1,16.7c-0.8,0.6-2.5,1.6-5.2,2.9l-1.1,0.5
			c-2.6,1.2-4.6,2-6.1,2.5c-4.5,1.5-11.1,2.3-19.8,2.3c-9,0-17-1.8-24.1-5.4c-6.9-3.6-12.8-8.7-17.6-15.3c-7.4-10.5-11-23.3-11-38.3
			c0-4.7,0.4-9.6,1.1-14.9c0.6-4.5,1.7-9.2,3.4-14c2.9-8.7,7.1-15.9,12.6-21.6c5.1-5.3,11.1-9.5,18-12.6c6.3-2.9,13.2-4.3,20.7-4.3
			c5.9,0,11.3,0.9,16.4,2.7c5.3,2,10.2,4.9,14.9,8.8c4.8,4.2,8.5,8.9,11,14c6.2,12.5,9.2,27.5,9.2,45.1h-86.3
			c0,12.5,2.9,22,8.8,28.6c5.7,6.6,14.2,9.9,25.5,9.9c5.6,0,10.7-1.3,15.5-3.8c4.7-2.4,8.3-5.6,11-9.7c2.6-3.9,3.8-7.1,3.8-9.7
			H383.4z M364,307.5c0-5-0.7-9.5-2-13.7c-1.7-4.5-3.8-8.3-6.3-11.5c-5.3-6.6-13.4-9.9-24.3-9.9c-6.3,0-11.8,1.7-16.4,5
			c-5.1,3.5-9.1,7.8-11.9,13.1c-3,5.7-4.5,11.4-4.5,17.1H364z"/>
	</g>
</g>
</svg>
