<?xml version="1.0" encoding="utf-8"?>
<!-- Generator: Adobe Illustrator 24.2.3, SVG Export Plug-In . SVG Version: 6.00 Build 0)  -->
<svg version="1.1" id="Capa_1" xmlns="http://www.w3.org/2000/svg" xmlns:xlink="http://www.w3.org/1999/xlink" x="0px" y="0px"
	 viewBox="0 0 512 512" style="enable-background:new 0 0 512 512;" xml:space="preserve">
<style type="text/css">
	.st0{fill:url(#SVGID_1_);}
	.st1{fill:url(#SVGID_2_);}
	.st2{fill:url(#SVGID_3_);}
</style>
<g>
	<linearGradient id="SVGID_1_" gradientUnits="userSpaceOnUse" x1="43.117" y1="157.132" x2="250.117" y2="451.132">
		<stop  offset="0" style="stop-color:#EF7E1C"/>
		<stop  offset="0.138" style="stop-color:#DB8125"/>
		<stop  offset="0.4204" style="stop-color:#A88B3B"/>
		<stop  offset="0.8188" style="stop-color:#56995E"/>
		<stop  offset="1" style="stop-color:#2EA06F"/>
	</linearGradient>
	<ellipse class="st0" cx="285.9" cy="502" rx="10" ry="10"/>
	<g>
		<linearGradient id="SVGID_2_" gradientUnits="userSpaceOnUse" x1="218.2729" y1="33.8079" x2="425.2729" y2="327.8079">
			<stop  offset="0" style="stop-color:#EF7E1C"/>
			<stop  offset="0.138" style="stop-color:#DB8125"/>
			<stop  offset="0.4204" style="stop-color:#A88B3B"/>
			<stop  offset="0.8188" style="stop-color:#56995E"/>
			<stop  offset="1" style="stop-color:#2EA06F"/>
		</linearGradient>
		<path class="st1" d="M286,90c-22.1,0-40,17.9-40,40s17.9,40,40,40s40-17.9,40-40S308.1,90,286,90z M286,150c-11,0-20-9-20-20
			s9-20,20-20s20,9,20,20S297,150,286,150z"/>
		<linearGradient id="SVGID_3_" gradientUnits="userSpaceOnUse" x1="103.7834" y1="114.4179" x2="310.7834" y2="408.4179">
			<stop  offset="0" style="stop-color:#EF7E1C"/>
			<stop  offset="0.138" style="stop-color:#DB8125"/>
			<stop  offset="0.4204" style="stop-color:#A88B3B"/>
			<stop  offset="0.8188" style="stop-color:#56995E"/>
			<stop  offset="1" style="stop-color:#2EA06F"/>
		</linearGradient>
		<path class="st2" d="M502,180h-94.8l6.3-11c1.3-2.3,1.7-5,1-7.6s-2.4-4.7-4.7-6.1l-24.6-14.2c0.5-3.9,0.7-7.5,0.7-11.1
			c0-3.5-0.2-7.2-0.7-11.1l24.6-14.2c2.3-1.3,4-3.5,4.7-6.1c0.7-2.6,0.3-5.3-1-7.6l-30-52c-2.8-4.8-8.9-6.4-13.7-3.7L345,49.7
			c-5.9-4.4-12.3-8.1-19-11V10c0-5.5-4.5-10-10-10h-60c-5.5,0-10,4.5-10,10v28.7c-6.7,2.9-13.1,6.6-19,11l-24.9-14.4
			c-4.8-2.8-10.9-1.1-13.7,3.7l-30,52c-1.3,2.3-1.7,5-1,7.6c0.7,2.6,2.4,4.7,4.7,6.1l24.6,14.2c-0.5,3.9-0.7,7.6-0.7,11.1
			c0,3.6,0.2,7.2,0.7,11.1l-24.6,14.2c-2.3,1.3-4,3.5-4.7,6.1c-0.7,2.6-0.3,5.3,1,7.6l6.3,11H80v-50c0-5.5-4.5-10-10-10H55
			c-30.3,0-55,24.7-55,55v282c0,30.3,24.7,55,55,55h186c5.5,0,10-4.5,10-10s-4.5-10-10-10H55c-19.3,0-35-15.7-35-35s15.7-35,35-35
			h15c5.5,0,10-4.5,10-10V200h96.3l12.1,21c2.8,4.8,8.9,6.4,13.7,3.7l24.9-14.4c5.9,4.4,12.3,8.1,19,11V250c0,5.5,4.5,10,10,10h20
			v46h-80c-5.5,0-10,4.5-10,10v56h-50c-5.5,0-10,4.5-10,10v60c0,5.5,4.5,10,10,10h120c5.5,0,10-4.5,10-10v-60c0-5.5-4.5-10-10-10
			h-50v-46h160v46h-50c-5.5,0-10,4.5-10,10v60c0,5.5,4.5,10,10,10h120c5.5,0,10-4.5,10-10v-60c0-5.5-4.5-10-10-10h-50v-56
			c0-5.5-4.5-10-10-10h-80v-46h20c5.5,0,10-4.5,10-10v-28.7c6.7-2.9,13.1-6.6,19-11l24.9,14.4c4.8,2.8,10.9,1.1,13.7-3.7l12.1-21
			H492v292H331c-5.5,0-10,4.5-10,10s4.5,10,10,10h171c5.5,0,10-4.5,10-10V190C512,184.5,507.5,180,502,180z M60,402h-5
			c-13.3,0-25.5,4.7-35,12.6V175c0-19.3,15.7-35,35-35h5V402z M246,432H146v-40h100V432z M426,432H326v-40h100V432z M371.3,202.3
			l-22.1-12.8c-3.7-2.1-8.3-1.7-11.5,1.1c-7.5,6.4-15.9,11.2-25,14.5c-4,1.4-6.6,5.2-6.6,9.4V240h-40v-25.5c0-4.2-2.7-8-6.6-9.4
			c-9.1-3.2-17.5-8.1-25-14.5c-3.2-2.7-7.8-3.2-11.5-1.1l-22.1,12.8l-20-34.6l21.9-12.6c3.7-2.1,5.6-6.3,4.8-10.5
			c-1-5.5-1.5-10.1-1.5-14.6c0-4.4,0.5-9.1,1.5-14.6c0.8-4.2-1.2-8.4-4.8-10.5l-21.9-12.7l20-34.6l22.1,12.8
			c3.7,2.1,8.3,1.7,11.5-1.1c7.5-6.4,15.9-11.2,25-14.5c4-1.4,6.6-5.2,6.6-9.4V20h40v25.5c0,4.2,2.7,8,6.6,9.4
			c9.1,3.2,17.5,8.1,25,14.5c3.2,2.7,7.8,3.2,11.5,1.1l22.1-12.8l20,34.6L369.3,105c-3.7,2.1-5.6,6.3-4.8,10.5
			c1,5.5,1.5,10.1,1.5,14.6c0,4.4-0.5,9.1-1.5,14.6c-0.8,4.2,1.2,8.4,4.8,10.5l21.9,12.6L371.3,202.3z"/>
	</g>
</g>
</svg>
